# xmcd
#
# Track frame offsets: 
#        150
#        13817
#        26193
#        39110
#        52385
#        69567
#        80891
#        92417
#        102914
#        115132
#        127218
#        138406
#        152008
#        165947
#        179528
#
# Disc length: 2574 seconds
#
# Revision: 7
# Processed by: cddbd v1.5.2PL0 Copyright (c) Steve Scherf et al.
# Submitted via: ExactAudioCopy v1.0b4
#
DISCID=cd0a0c0f
DTITLE=Various Artist - Blues In History I Cd 1
DYEAR=1900
DGENRE=Blues
TTITLE0=Dr. Clayton - Dr. Clayton - Pearl Harbour Blues
TTITLE1=Sonny Boy Williamson - Sonny Boy Williamson I - Win The War Bl
TTITLE1=ues
TTITLE2=Arthur Big Boy Crudup - Arthur Big Boy Crudup - Give Me A 32-2
TTITLE2=0
TTITLE3=Dr. Clayton - Dr. Clayton - 41 Blues
TTITLE4=David Edwards - David Edwards - The Army Blues
TTITLE5=Homer Harris - Homer Harris - Atomic Bomb Blues
TTITLE6=Brownie Mcghee - Brownie Mcghee - Million Lonesome Women
TTITLE7=Lowell Fulson - Lowell Fulson - San Francisco Blues
TTITLE8=Lowell Fulson - Lowell Fulson - Don't Be So Evil
TTITLE9=Lowell Fulson - Lowell Fulson - River Blues Pt. 1
TTITLE10=Lowell Fulson - Lowell Fulson - The Blues Is Killing Me
TTITLE11=Crayton - Crayton - After Hours Boogie
TTITLE12=Crayton - Crayton - Blues After Hours
TTITLE13=Crayton - Crayton - Texas Hop
TTITLE14=T-Bone Walker - T-Bone Walker - Call It Stormy Monday
EXTD=A Collection of 40 CDs
EXTT0=
EXTT1=
EXTT2=
EXTT3=
EXTT4=
EXTT5=
EXTT6=
EXTT7=
EXTT8=
EXTT9=
EXTT10=
EXTT11=
EXTT12=
EXTT13=
EXTT14=
PLAYORDER=
